<?xml version="1.0" encoding="UTF-8"?>
<svg fill="#000000" version="1.1" viewBox="0 0 381.02 381.02" xml:space="preserve" xmlns="http://www.w3.org/2000/svg">  <polygon points="162.25 287.36 145.55 318.2 62.11 234.76 92.95 218.06" fill="#fff"/> <path d="m250.69 172.74c-1.796 0.269-3.642 0.403-5.523 0.403-20.987 0-38-17.013-38-38s17.013-38 38-38c1.881 0 3.726 0.134 5.523 0.403 18.371 2.673 32.477 18.491 32.477 37.597s-14.107 34.924-32.477 37.597z" fill="#026"/> <polygon points="163.22 109.61 73.86 198.97 18.98 188.8 88.54 119.24" fill="#fff"/> <polygon points="270.71 217.09 261.07 291.77 191.51 361.34 181.34 306.45" fill="#fff"/> <path d="m320.56 59.752c14.27 14.26 32.44 22.19 51.08 23.81-9.34 30.47-26.03 58.62-49.14 81.73l-51.79 51.8-89.37 89.36-107.48-107.48 89.36-89.36h0.01l51.79-51.8c23.12-23.12 51.27-39.81 81.74-49.14 1.61 18.64 9.54 36.81 23.8 51.08zm-48.52 102.26c14.84-14.84 14.84-38.9 0-53.74s-38.9-14.84-53.74 0-14.84 38.9 0 53.74 38.9 14.84 53.74 0z" fill="#F4581B"/> <path d="m378.82 1.492c3.45 27.92 0.86 55.86-7.18 82.07-18.64-1.62-36.81-9.55-51.08-23.81-14.26-14.27-22.19-32.44-23.8-51.08 26.22-8.04 54.15-10.63 82.06-7.18z" fill="#fff"/> <rect transform="matrix(-.7071 -.7071 .7071 -.7071 -143.02 599.08)" x="45.065" y="276.16" width="15" height="106" fill="#F4581B"/> <rect transform="matrix(-.7071 -.7071 .7071 -.7071 -108.72 642.87)" x="71.285" y="299.04" width="15" height="89.837" fill="#F4581B"/> <rect transform="matrix(-.7071 -.7071 .7071 -.7071 -149.73 543.86)" x="30.272" y="258.02" width="15" height="89.837" fill="#F4581B"/>  <path d="m250.69 172.74v-75.194c18.371 2.673 32.477 18.491 32.477 37.597s-14.107 34.924-32.477 37.597z" fill="#026"/>   </svg>
